Genre:Action | Adventure | Comedy | Drama | Fantasy
Language:English
IMDb:http://www.imdb.com/title/tt0963966/
Source Video:Sihirbazin.Ciragi.2010.TR.DvB.XviD-OpeD
Source Audio:PRISM.Thanks

General
Complete name :The.Sorcerers.Apprentice.2010.Scr.XviD.Feel-Free
Format : AVI
Format/Info : Audio Video Interleave
File size : 692 MiB
Duration : 1h 39mn
Overall bit rate : 976 Kbps
Video #0
Codec ID : XVID
Codec ID/Hint : XviD
Duration : 1h 39mn
Bit rate : 839 Kbps
Width : 720 pixels
Height : 304 pixels
Display aspect ratio : 2.35:1
Frame rate : 25.000 fps
Resolution : 24 bits
Colorimetry : 4:2:0
Scan type : Progressive
Bits/(Pixel*Frame) : 0.153
Stream size : 595 MiB (86%)
Writing library : XviD 1.2.1 (UTC 2008-12-04)
Audio #1
ID : 1
Format : MPEG Audio
Format version : Version 1
Format profile : Layer 3
Codec ID : 55
Codec ID/Hint : MP3
Duration : 1h 38mn
Bit rate mode : Constant
Bit rate : 128 Kbps
Channel(s) : 2 channels
Sampling rate : 44.1 KHz
Resolution : 16 bits
Video delay : 22ms
Stream size : 90.2 MiB (13%)
Alignment : Split accross interleaves
Interleave, duration : 40 ms (1.01 video frame)
Interleave, preload duration : 500 ms

Plot:
Master sorcerer Balthazar Blake recruits a seemingly everyday guy in his mission to defend New York City from his arch-nemesis, Maxim Horvath